<?xml version="1.0" encoding="UTF-8" standalone="no" ?>
<!DOCTYPE svg PUBLIC "-//W3C//DTD SVG 1.1//EN" "http://www.w3.org/Graphics/SVG/1.1/DTD/svg11.dtd">
<svg xmlns="http://www.w3.org/2000/svg" xmlns:xlink="http://www.w3.org/1999/xlink" version="1.1" width="200" height="200" viewBox="0 0 100 100" xml:space="preserve">
<desc>Created with Fabric.js 3.6.3</desc>
<defs>
</defs>
<g transform="matrix(1.2 0 0 1.2 50.15 49.65)"  >
<g style=""   >
		<g transform="matrix(0.91 0 0 0.91 0.01 -0.01)"  >
<circle style="stroke: rgb(88,88,88); stroke-width: 7; stroke-dasharray: none; stroke-linecap: butt; stroke-dashoffset: 0; stroke-linejoin: miter; stroke-miterlimit: 4; fill: rgb(51,51,51); fill-rule: nonzero; opacity: 1;"  cx="0" cy="0" r="40" />
</g>
		<g transform="matrix(0.46 0 0 0.46 -23.88 2.35)"  >
<line style="stroke: rgb(0,0,0); stroke-width: 2; stroke-dasharray: none; stroke-linecap: butt; stroke-dashoffset: 0; stroke-linejoin: miter; stroke-miterlimit: 4; fill: rgb(51,51,51); fill-rule: nonzero; opacity: 1;"  x1="0" y1="0" x2="0" y2="0" />
</g>
		<g transform="matrix(0.1 0 0 0.1 1.42 -0.54)"  >
<path style="stroke: none; stroke-width: 1; stroke-dasharray: none; stroke-linecap: butt; stroke-dashoffset: 0; stroke-linejoin: miter; stroke-miterlimit: 4; fill: rgb(244,244,244); fill-rule: nonzero; opacity: 1;"  transform=" translate(-244.82, -244.82)" d="M 460.656 132.911 c -58.7 -122.1 -212.2 -166.5 -331.8 -104.1 c -9.4 5.2 -13.5 16.6 -8.3 27 c 5.2 9.4 16.6 13.5 27 8.3 c 99.9 -52 227.4 -14.9 276.7 86.3 c 65.4 134.3 -19 236.7 -87.4 274.6 c -93.1 51.7 -211.2 17.4 -267.6 -70.7 l 69.3 14.5 c 10.4 2.1 21.8 -4.2 23.9 -15.6 c 2.1 -10.4 -4.2 -21.8 -15.6 -23.9 l -122.8 -25 c -20.6 -2 -25 16.6 -23.9 22.9 l 15.6 123.8 c 1 10.4 9.4 17.7 19.8 17.7 c 12.8 0 20.8 -12.5 19.8 -23.9 l -6 -50.5 c 57.4 70.8 170.3 131.2 307.4 68.2 C 414.856 432.511 548.256 314.811 460.656 132.911 z" stroke-linecap="round" />
</g>
</g>
</g>
</svg>